<?xml version="1.0" encoding="UTF-8" standalone="no" ?>
<!DOCTYPE svg PUBLIC "-//W3C//DTD SVG 1.1//EN" "http://www.w3.org/Graphics/SVG/1.1/DTD/svg11.dtd">
<svg xmlns="http://www.w3.org/2000/svg" xmlns:xlink="http://www.w3.org/1999/xlink" version="1.1" width="1080" height="1080" viewBox="0 0 1080 1080" xml:space="preserve">
<desc>Created with Fabric.js 5.2.4</desc>
<defs>
</defs>
<rect x="0" y="0" width="100%" height="100%" fill="transparent"></rect>
<g transform="matrix(1 0 0 1 540 540)" id="015bbb0f-e730-4cb8-b9ba-97a2b1eaaaa8"  >
<rect style="stroke: none; stroke-width: 1; stroke-dasharray: none; stroke-linecap: butt; stroke-dashoffset: 0; stroke-linejoin: miter; stroke-miterlimit: 4; fill: rgb(255,255,255); fill-rule: nonzero; opacity: 1; visibility: hidden;" vector-effect="non-scaling-stroke"  x="-540" y="-540" rx="0" ry="0" width="1080" height="1080" />
</g>
<g transform="matrix(0 0 0 0 0 0)" id="7b6e09c8-b979-4f38-be8f-186695d5578b"  >
</g>
<g transform="matrix(4.65 0 0 4.65 453.67 204.26)"  >
<rect style="stroke: none; stroke-width: 1; stroke-dasharray: none; stroke-linecap: butt; stroke-dashoffset: 0; stroke-linejoin: miter; stroke-miterlimit: 4; fill: rgb(19,7,84); fill-rule: nonzero; opacity: 1;" vector-effect="non-scaling-stroke"  x="-12.045" y="-25.01" rx="0" ry="0" width="24.09" height="50.02" />
</g>
<g transform="matrix(4.65 0 0 4.65 453.67 682.49)"  >
<rect style="stroke: none; stroke-width: 1; stroke-dasharray: none; stroke-linecap: butt; stroke-dashoffset: 0; stroke-linejoin: miter; stroke-miterlimit: 4; fill: rgb(19,7,84); fill-rule: nonzero; opacity: 1;" vector-effect="non-scaling-stroke"  x="-12.045" y="-25.01" rx="0" ry="0" width="24.09" height="50.02" />
</g>
<g transform="matrix(4.65 0 0 4.65 453.67 443.59)"  >
<rect style="stroke: none; stroke-width: 1; stroke-dasharray: none; stroke-linecap: butt; stroke-dashoffset: 0; stroke-linejoin: miter; stroke-miterlimit: 4; fill: rgb(255,202,0); fill-rule: nonzero; opacity: 1;" vector-effect="non-scaling-stroke"  x="-12.045" y="-11.8" rx="0" ry="0" width="24.09" height="23.6" />
</g>
<g transform="matrix(4.65 0 0 4.65 273.59 666.03)"  >
<rect style="stroke: none; stroke-width: 1; stroke-dasharray: none; stroke-linecap: butt; stroke-dashoffset: 0; stroke-linejoin: miter; stroke-miterlimit: 4; fill: rgb(19,7,84); fill-rule: nonzero; opacity: 1;" vector-effect="non-scaling-stroke"  x="-12.045" y="-83.135" rx="0" ry="0" width="24.09" height="166.27" />
</g>
<g transform="matrix(4.65 0 0 4.65 630.06 874.57)"  >
<rect style="stroke: none; stroke-width: 1; stroke-dasharray: none; stroke-linecap: butt; stroke-dashoffset: 0; stroke-linejoin: miter; stroke-miterlimit: 4; fill: rgb(19,7,84); fill-rule: nonzero; opacity: 1;" vector-effect="non-scaling-stroke"  x="-12.045" y="-25.01" rx="0" ry="0" width="24.09" height="50.02" />
</g>
<g transform="matrix(4.65 0 0 4.65 630.06 395.98)"  >
<rect style="stroke: none; stroke-width: 1; stroke-dasharray: none; stroke-linecap: butt; stroke-dashoffset: 0; stroke-linejoin: miter; stroke-miterlimit: 4; fill: rgb(19,7,84); fill-rule: nonzero; opacity: 1;" vector-effect="non-scaling-stroke"  x="-12.045" y="-25.01" rx="0" ry="0" width="24.09" height="50.02" />
</g>
<g transform="matrix(4.65 0 0 4.65 630.06 635.29)"  >
<rect style="stroke: none; stroke-width: 1; stroke-dasharray: none; stroke-linecap: butt; stroke-dashoffset: 0; stroke-linejoin: miter; stroke-miterlimit: 4; fill: rgb(231,4,136); fill-rule: nonzero; opacity: 1;" vector-effect="non-scaling-stroke"  x="-12.045" y="-11.8" rx="0" ry="0" width="24.09" height="23.6" />
</g>
<g transform="matrix(4.65 0 0 4.65 806.41 413.97)"  >
<rect style="stroke: none; stroke-width: 1; stroke-dasharray: none; stroke-linecap: butt; stroke-dashoffset: 0; stroke-linejoin: miter; stroke-miterlimit: 4; fill: rgb(19,7,84); fill-rule: nonzero; opacity: 1;" vector-effect="non-scaling-stroke"  x="-12.045" y="-83.135" rx="0" ry="0" width="24.09" height="166.27" />
</g>
</svg>